<?xml version="1.0" standalone="no"?>
<!DOCTYPE svg PUBLIC "-//W3C//DTD SVG 20010904//EN"
 "http://www.w3.org/TR/2001/REC-SVG-20010904/DTD/svg10.dtd">
<svg version="1.0" xmlns="http://www.w3.org/2000/svg"
 width="500.000000pt" height="500.000000pt" viewBox="0 0 500.000000 500.000000"
 preserveAspectRatio="xMidYMid meet">

<g transform="translate(0.000000,500.000000) scale(0.100000,-0.100000)"
fill="#000000" stroke="none">
<path d="M1740 3776 c0 -76 -4 -108 -14 -118 -11 -12 -11 -17 0 -33 11 -15 14
-81 14 -325 0 -343 3 -366 66 -457 39 -57 131 -125 192 -143 164 -48 332 9
429 145 l21 29 58 -54 c72 -65 171 -114 264 -131 173 -31 373 59 470 211 158
246 68 566 -194 696 -72 35 -87 39 -178 42 -139 6 -215 -17 -325 -99 -60 -45
-105 -106 -138 -188 -22 -54 -34 -124 -65 -396 -20 -182 -90 -255 -239 -255
-60 0 -124 24 -153 56 -63 71 -80 201 -76 579 l3 280 183 3 c151 2 182 5 182
17 0 12 -31 15 -182 17 l-183 3 -3 113 -3 112 -64 0 -65 0 0 -104z m1203 -172
c97 -33 187 -147 222 -279 20 -77 20 -243 -1 -320 -33 -129 -107 -230 -203
-276 -69 -34 -178 -32 -246 3 -143 74 -224 253 -212 469 13 212 104 362 252
410 38 13 142 9 188 -7z"/>
<path d="M1428 3649 c-135 -18 -233 -72 -299 -167 -53 -75 -69 -152 -69 -324
0 -201 -27 -295 -108 -376 -41 -41 -93 -69 -162 -88 l-45 -13 49 0 c57 -1 154
22 209 50 63 33 121 93 157 166 l34 68 6 200 c6 184 8 205 32 262 43 105 110
168 224 208 75 26 73 27 -28 14z"/>
<path d="M3738 3621 c-144 -46 -251 -151 -310 -304 -20 -49 -21 -70 -19 -397
2 -309 -6 -478 -26 -560 l-6 -25 22 20 c12 10 42 60 66 110 47 94 75 207 75
295 0 57 13 64 49 26 34 -36 147 -84 229 -96 89 -14 209 6 286 48 195 105 296
335 241 547 -41 158 -165 289 -317 337 -79 24 -212 24 -290 -1z m267 -25 c94
-44 176 -155 204 -276 15 -65 13 -256 -3 -317 -51 -191 -166 -298 -321 -298
-157 1 -281 115 -330 302 -20 75 -19 242 0 318 34 129 121 241 216 277 67 25
173 23 234 -6z"/>
<path d="M3270 2696 c0 -2 8 -10 18 -17 15 -13 16 -12 3 4 -13 16 -21 21 -21
13z"/>
<path d="M3220 2642 c0 -4 9 -8 20 -8 11 0 20 4 20 8 0 4 -9 8 -20 8 -11 0
-20 -4 -20 -8z"/>
<path d="M3279 2603 c-13 -16 -12 -17 4 -4 16 13 21 21 13 21 -2 0 -10 -8 -17
-17z"/>
<path d="M3035 2603 c-33 -8 -65 -44 -65 -73 0 -34 26 -58 76 -71 103 -27 127
-55 80 -96 -32 -27 -72 -29 -121 -6 -39 18 -59 11 -29 -11 37 -28 94 -36 136
-19 92 37 73 126 -32 148 -102 22 -121 72 -39 104 20 7 36 5 67 -9 25 -11 44
-15 47 -9 4 5 -13 18 -37 29 -44 20 -49 21 -83 13z"/>
<path d="M1900 2493 c0 -102 -2 -111 -23 -131 -32 -30 -63 -28 -99 8 -35 35
-38 36 -38 11 0 -11 12 -29 26 -40 37 -29 95 -28 131 3 28 24 28 26 28 137 0
81 -3 113 -12 116 -10 4 -13 -22 -13 -104z"/>
<path d="M2036 2573 c-7 -36 -1 -237 8 -251 9 -15 148 -11 153 5 3 8 -16 13
-64 15 l-68 3 0 50 0 50 58 3 c31 2 57 7 57 12 0 5 -26 10 -57 12 l-58 3 -3
48 -3 47 43 1 c24 1 50 3 58 4 8 1 21 3 28 4 6 0 12 6 12 11 0 6 -33 10 -79
10 -79 0 -79 0 -85 -27z"/>
<path d="M2402 2573 c-27 -68 -92 -244 -92 -248 0 -18 22 1 36 30 16 34 18 35
75 35 58 0 59 -1 73 -35 16 -37 42 -50 31 -15 -28 88 -94 255 -102 257 -6 2
-15 -9 -21 -24z m50 -100 c9 -25 15 -50 12 -55 -7 -11 -81 -10 -88 1 -6 9 26
90 40 104 10 10 16 2 36 -50z"/>
<path d="M2640 2460 c0 -87 4 -140 10 -140 6 0 10 40 10 100 0 76 3 100 13
100 8 0 36 -32 63 -72 59 -87 93 -128 105 -128 5 0 9 62 9 140 0 87 -4 140
-10 140 -6 0 -10 -40 -10 -99 0 -55 -4 -102 -9 -105 -11 -7 -36 22 -105 122
-32 45 -62 82 -67 82 -5 0 -9 -60 -9 -140z"/>
<path d="M632 1878 l3 -203 1865 0 1865 0 3 203 2 202 -1870 0 -1870 0 2 -202z
m1042 105 c109 -51 71 -223 -49 -223 -56 0 -115 59 -115 114 0 35 30 86 62
106 40 24 57 25 102 3z m2081 3 c60 -25 41 -67 -20 -45 -42 16 -78 0 -95 -41
-23 -56 40 -117 96 -91 36 16 54 14 54 -8 0 -22 -47 -44 -91 -43 -126 3 -146
196 -25 231 43 13 43 13 81 -3z m-2909 -33 c16 -21 31 -41 34 -46 4 -4 21 13
39 38 55 77 71 60 71 -73 0 -93 -8 -119 -34 -109 -12 5 -16 21 -16 69 l-1 63
-20 -27 c-11 -16 -26 -28 -32 -28 -6 0 -21 12 -34 28 l-22 27 -1 -63 c0 -48
-4 -64 -16 -69 -25 -9 -34 16 -34 102 0 134 17 156 66 88z m255 20 c4 -51 0
-205 -5 -210 -3 -3 -12 -3 -21 0 -12 5 -15 26 -15 110 0 57 3 107 7 110 13 13
33 7 34 -10z m237 -31 c3 -41 4 -42 37 -42 33 0 34 1 37 43 2 34 7 42 23 42
19 0 20 -7 20 -110 0 -103 -1 -110 -20 -110 -16 0 -21 8 -23 43 -3 41 -4 42
-38 42 -33 0 -34 -1 -34 -40 0 -43 -24 -66 -41 -39 -10 16 -12 179 -3 204 13
32 39 12 42 -33z m592 21 c15 -20 20 -35 15 -53 -9 -34 -7 -88 5 -109 6 -12 5
-22 -2 -29 -16 -16 -48 4 -48 31 0 28 -17 47 -42 47 -14 0 -18 -8 -18 -40 0
-43 -24 -66 -41 -39 -10 16 -12 179 -3 203 5 12 20 16 59 16 46 0 56 -4 75
-27z m146 -13 c15 -22 30 -40 35 -40 5 0 21 18 35 40 16 25 34 40 43 38 23 -5
24 -223 1 -223 -11 0 -16 16 -20 65 l-5 65 -21 -28 c-28 -35 -37 -34 -68 6
l-26 32 0 -73 c0 -65 -2 -73 -17 -70 -16 3 -18 17 -21 102 -1 55 0 106 2 113
10 24 36 13 62 -27z m327 -64 c21 -55 36 -105 33 -113 -9 -21 -32 -15 -44 12
-9 20 -19 25 -47 25 -29 0 -37 -5 -45 -25 -12 -31 -40 -33 -40 -4 0 19 22 86
59 182 20 51 42 30 84 -77z m297 84 c24 -24 26 -77 3 -102 -9 -10 -30 -18 -49
-18 -32 0 -33 -2 -36 -42 -2 -35 -7 -43 -23 -43 -18 0 -20 8 -23 99 -1 55 0
106 2 113 9 22 102 17 126 -7z m216 9 c11 -18 -11 -31 -61 -36 -35 -5 -45 -9
-43 -22 2 -10 17 -18 43 -21 32 -4 41 -10 43 -27 3 -19 -2 -22 -40 -25 -35 -2
-43 -7 -43 -23 0 -17 8 -21 45 -23 56 -4 72 -18 46 -38 -23 -16 -73 -18 -110
-4 -26 9 -26 11 -26 113 0 57 3 107 7 110 11 11 131 8 139 -4z m175 0 c28 -15
40 -52 28 -87 -7 -21 -6 -40 4 -70 17 -48 7 -73 -20 -56 -10 6 -19 22 -21 35
-4 25 -27 49 -49 49 -9 0 -13 -14 -13 -40 0 -43 -24 -66 -41 -39 -10 16 -12
179 -3 203 7 19 84 22 115 5z m245 -1 c11 -17 -26 -38 -68 -38 -31 0 -38 -4
-38 -20 0 -17 7 -20 39 -20 43 0 68 -19 49 -38 -7 -7 -29 -12 -50 -12 l-38 0
0 -46 c0 -38 -3 -45 -17 -42 -16 3 -18 17 -21 102 -1 55 0 106 2 113 7 17 132
18 142 1z m204 -7 c0 -22 -19 -31 -66 -31 -27 0 -34 -4 -34 -19 0 -16 8 -20
43 -23 34 -2 42 -7 42 -23 0 -16 -8 -21 -42 -23 -38 -3 -43 -6 -43 -28 0 -22
4 -24 50 -24 42 0 50 -3 50 -19 0 -10 -7 -22 -16 -25 -22 -8 -97 -7 -111 2
-10 6 -17 119 -14 215 1 14 11 17 71 17 62 0 70 -2 70 -19z m476 8 c9 -15 -10
-32 -38 -34 -22 -2 -23 -6 -26 -86 -3 -90 -12 -110 -37 -89 -11 9 -15 32 -15
90 l0 78 -30 6 c-21 4 -30 11 -30 26 0 18 6 20 84 20 50 0 88 -4 92 -11z m122
-2 c15 -18 63 -146 69 -184 4 -26 2 -33 -11 -33 -9 0 -22 11 -28 25 -9 19 -19
25 -45 25 -26 0 -36 -6 -45 -25 -12 -27 -35 -33 -44 -12 -4 11 54 179 72 208
7 13 20 11 32 -4z"/>
<path d="M1582 1927 c-29 -31 -28 -72 3 -102 28 -29 42 -31 73 -9 35 24 45 59
27 93 -24 47 -69 55 -103 18z"/>
<path d="M1840 1919 c0 -27 3 -30 27 -27 49 5 40 57 -9 58 -13 0 -18 -8 -18
-31z"/>
<path d="M2337 1880 c-3 -13 0 -20 9 -20 15 0 19 26 5 34 -5 3 -11 -3 -14 -14z"/>
<path d="M2620 1915 c0 -20 5 -25 24 -25 24 0 41 23 30 41 -3 5 -16 9 -30 9
-19 0 -24 -5 -24 -25z"/>
<path d="M3020 1914 c0 -22 4 -25 28 -22 19 2 28 9 30 26 3 19 -1 22 -27 22
-27 0 -31 -4 -31 -26z"/>
<path d="M4115 1887 c-4 -10 -3 -23 3 -29 14 -14 21 3 12 27 -7 19 -8 19 -15
2z"/>
</g>
</svg>
